<svg width="500" height="500" viewBox="0 0 500 500" fill="none" xmlns="http://www.w3.org/2000/svg">
<circle cx="250" cy="250" r="250" fill="#3895FF"/>
<path d="M147.216 375.25C134.85 375.25 123.533 373.5 113.266 370C103 366.5 94.3662 361.95 87.3662 356.35C81.9995 352.15 77.9162 347.717 75.1162 343.05C72.3162 338.383 70.9162 334.067 70.9162 330.1C70.9162 324.267 72.8995 319.6 76.8662 316.1C81.0662 312.6 86.0829 310.85 91.9162 310.85C96.1162 310.85 99.9662 311.667 103.466 313.3C106.966 314.933 110.816 317.85 115.016 322.05C119.916 326.95 124.816 330.45 129.716 332.55C134.85 334.65 140.683 335.7 147.216 335.7C153.05 335.7 158.066 334.883 162.266 333.25C166.466 331.617 169.5 329.517 171.366 326.95C173.466 324.383 174.516 321.583 174.516 318.55C174.516 315.283 173 312.483 169.966 310.15C166.933 307.583 162.966 305.483 158.066 303.85C153.166 302.217 146.983 300.583 139.516 298.95C126.216 295.217 115.133 291.717 106.266 288.45C97.6329 284.95 90.1662 279.583 83.8662 272.35C77.5662 265.117 74.4162 255.667 74.4162 244C74.4162 234.2 77.3329 225.1 83.1662 216.7C89.2329 208.067 97.8662 201.183 109.066 196.05C120.266 190.917 133.333 188.35 148.266 188.35C159.933 188.35 170.433 189.867 179.766 192.9C189.333 195.933 197.383 200.017 203.916 205.15C209.05 209.35 213.016 213.667 215.816 218.1C218.85 222.533 220.366 226.617 220.366 230.35C220.366 235.95 218.383 240.5 214.416 244C210.45 247.5 205.55 249.25 199.716 249.25C195.516 249.25 191.666 248.55 188.166 247.15C184.9 245.517 181.166 242.95 176.966 239.45C172.066 235.25 167.4 232.333 162.966 230.7C158.766 228.833 153.866 227.9 148.266 227.9C143.6 227.9 139.516 228.6 136.016 230C132.75 231.167 130.183 232.917 128.316 235.25C126.45 237.583 125.516 240.033 125.516 242.6C125.516 246.1 127.033 249.133 130.066 251.7C133.1 254.033 137.066 256.017 141.966 257.65C147.1 259.05 153.283 260.683 160.516 262.55C173.816 266.05 184.783 269.55 193.416 273.05C202.283 276.55 209.866 281.917 216.166 289.15C222.466 296.15 225.616 305.483 225.616 317.15C225.616 327.417 222.466 336.983 216.166 345.85C210.1 354.717 201.116 361.833 189.216 367.2C177.316 372.567 163.316 375.25 147.216 375.25ZM338.39 375.25C322.757 375.25 308.64 371.983 296.04 365.45C283.44 358.683 273.523 349.7 266.29 338.5C259.057 327.067 255.44 314.35 255.44 300.35V144.95C255.44 138.417 257.89 132.817 262.79 128.15C267.69 123.483 273.873 121.15 281.34 121.15C286.007 121.15 290.323 122.317 294.29 124.65C298.257 126.75 301.29 129.667 303.39 133.4C305.723 136.9 306.89 140.75 306.89 144.95V206.55H320.19L305.84 214.25C307.707 209.35 310.857 204.917 315.29 200.95C319.957 196.75 325.44 193.6 331.74 191.5C338.04 189.4 344.807 188.35 352.04 188.35C364.407 188.35 375.84 191.733 386.34 198.5C396.84 205.033 405.24 214.133 411.54 225.8C417.84 237.233 420.99 249.717 420.99 263.25V300.35C420.99 314.35 417.373 327.067 410.14 338.5C402.907 349.7 392.99 358.683 380.39 365.45C367.79 371.983 353.79 375.25 338.39 375.25ZM338.39 332.9C344.223 332.9 349.473 331.5 354.14 328.7C359.04 325.9 362.89 322.05 365.69 317.15C368.49 312.017 369.89 306.417 369.89 300.35V263.25C369.89 256.95 368.49 251.35 365.69 246.45C362.89 241.55 359.04 237.7 354.14 234.9C349.473 231.867 344.223 230.35 338.39 230.35C332.323 230.35 326.84 231.867 321.94 234.9C317.273 237.7 313.54 241.55 310.74 246.45C308.173 251.35 306.89 256.95 306.89 263.25V300.35C306.89 306.417 308.173 312.017 310.74 317.15C313.54 322.05 317.273 325.9 321.94 328.7C326.84 331.5 332.323 332.9 338.39 332.9Z" fill="white"/>
<circle cx="417" cy="152" r="25" fill="white"/>
</svg>
