<svg width="800" height="480" viewBox="0 0 800 480" fill="none" xmlns="http://www.w3.org/2000/svg">
<path d="M465.19 275.44C461.798 275.44 458.63 274.576 455.686 272.848C452.806 271.12 450.502 268.848 448.774 266.032C447.046 263.152 446.182 260.048 446.182 256.72V244.912C446.182 241.584 447.046 238.512 448.774 235.696C450.502 232.816 452.806 230.512 455.686 228.784C458.63 227.056 461.798 226.192 465.19 226.192C468.582 226.192 471.59 227.056 474.214 228.784C476.902 230.448 478.726 232.56 479.686 235.12L475.75 232.912H479.302V210.832C479.302 209.872 479.622 209.072 480.262 208.432C480.966 207.792 481.862 207.472 482.95 207.472C483.654 207.472 484.262 207.632 484.774 207.952C485.35 208.208 485.766 208.592 486.022 209.104C486.342 209.616 486.502 210.192 486.502 210.832V271.12C486.502 272.08 486.182 272.88 485.542 273.52C484.902 274.16 484.038 274.48 482.95 274.48C482.182 274.48 481.51 274.32 480.934 274C480.422 273.616 480.006 273.136 479.686 272.56C479.366 271.984 479.206 271.344 479.206 270.64V264.976L481.702 268.72H478.63C477.542 270.512 475.782 272.08 473.35 273.424C470.918 274.768 468.198 275.44 465.19 275.44ZM466.63 269.2C469.062 269.2 471.238 268.688 473.158 267.664C475.078 266.576 476.582 265.136 477.67 263.344C478.758 261.488 479.302 259.44 479.302 257.2V244.432C479.302 242.192 478.758 240.176 477.67 238.384C476.582 236.528 475.078 235.088 473.158 234.064C471.238 232.976 469.062 232.432 466.63 232.432C464.07 232.432 461.798 233.008 459.814 234.16C457.83 235.248 456.262 236.752 455.11 238.672C453.958 240.528 453.382 242.608 453.382 244.912V256.72C453.382 259.024 453.958 261.136 455.11 263.056C456.262 264.912 457.83 266.416 459.814 267.568C461.798 268.656 464.07 269.2 466.63 269.2ZM520.353 275.44C516.449 275.44 512.929 274.608 509.793 272.944C506.657 271.216 504.193 268.912 502.401 266.032C500.609 263.152 499.713 260.048 499.713 256.72V244.912C499.713 241.584 500.609 238.48 502.401 235.6C504.193 232.72 506.657 230.448 509.793 228.784C512.929 227.056 516.449 226.192 520.353 226.192C524.257 226.192 527.777 227.056 530.913 228.784C534.113 230.448 536.577 232.72 538.305 235.6C540.097 238.48 540.993 241.584 540.993 244.912C540.993 245.808 540.993 246.736 540.993 247.696C540.993 248.656 540.993 249.584 540.993 250.48C540.993 251.44 540.673 252.24 540.033 252.88C539.393 253.52 538.529 253.84 537.441 253.84H504.129L506.913 251.632V256.72C506.913 259.024 507.489 261.136 508.641 263.056C509.793 264.912 511.393 266.416 513.441 267.568C515.489 268.656 517.793 269.2 520.353 269.2C523.169 269.2 525.569 268.688 527.553 267.664C529.601 266.64 531.425 265.232 533.025 263.44C533.793 262.672 534.433 262.16 534.945 261.904C535.521 261.648 536.161 261.52 536.865 261.52C537.633 261.52 538.273 261.808 538.785 262.384C539.297 262.896 539.553 263.536 539.553 264.304C539.553 265.008 539.297 265.808 538.785 266.704C538.337 267.536 537.601 268.4 536.577 269.296C534.721 271.216 532.449 272.72 529.761 273.808C527.073 274.896 523.937 275.44 520.353 275.44ZM506.913 249.616L504.225 247.792H536.193L533.793 249.904V244.912C533.793 242.608 533.217 240.528 532.065 238.672C530.913 236.752 529.313 235.248 527.265 234.16C525.281 233.008 522.977 232.432 520.353 232.432C517.793 232.432 515.489 233.008 513.441 234.16C511.457 235.248 509.857 236.752 508.641 238.672C507.489 240.528 506.913 242.608 506.913 244.912V249.616ZM569.114 275.44C565.466 275.44 562.202 274.736 559.322 273.328C556.506 271.856 554.202 269.968 552.41 267.664C551.578 266.704 550.906 265.712 550.394 264.688C549.882 263.664 549.626 262.768 549.626 262C549.626 261.168 549.914 260.496 550.49 259.984C551.066 259.408 551.802 259.12 552.698 259.12C553.466 259.12 554.138 259.312 554.714 259.696C555.29 260.016 555.866 260.624 556.442 261.52C557.722 264.08 559.386 266 561.434 267.28C563.546 268.56 566.106 269.2 569.114 269.2C571.61 269.2 573.754 268.848 575.546 268.144C577.338 267.376 578.65 266.384 579.482 265.168C580.378 263.952 580.826 262.64 580.826 261.232C580.826 259.568 580.25 258.224 579.098 257.2C578.01 256.176 576.634 255.408 574.97 254.896C573.306 254.32 571.066 253.712 568.25 253.072C564.538 252.176 561.562 251.312 559.322 250.48C557.082 249.648 555.13 248.368 553.466 246.64C551.866 244.848 551.066 242.448 551.066 239.44C551.066 237.2 551.802 235.088 553.274 233.104C554.746 231.056 556.794 229.392 559.418 228.112C562.106 226.832 565.178 226.192 568.634 226.192C571.77 226.192 574.682 226.8 577.37 228.016C580.058 229.168 582.17 230.704 583.706 232.624C584.538 233.52 585.178 234.448 585.626 235.408C586.138 236.304 586.394 237.072 586.394 237.712C586.394 238.608 586.106 239.312 585.53 239.824C584.954 240.336 584.218 240.592 583.322 240.592C582.682 240.592 582.074 240.432 581.498 240.112C580.986 239.728 580.41 239.152 579.77 238.384C578.49 236.4 576.922 234.928 575.066 233.968C573.274 232.944 571.13 232.432 568.634 232.432C566.458 232.432 564.602 232.784 563.066 233.488C561.53 234.128 560.346 234.992 559.514 236.08C558.682 237.168 558.266 238.288 558.266 239.44C558.266 241.104 558.81 242.448 559.898 243.472C561.05 244.496 562.458 245.296 564.122 245.872C565.786 246.384 568.026 246.96 570.842 247.6C574.554 248.496 577.53 249.36 579.77 250.192C582.074 251.024 584.026 252.336 585.626 254.128C587.226 255.856 588.026 258.224 588.026 261.232C588.026 263.728 587.258 266.064 585.722 268.24C584.25 270.352 582.074 272.08 579.194 273.424C576.314 274.768 572.954 275.44 569.114 275.44ZM602.868 274.48C602.164 274.48 601.524 274.32 600.948 274C600.436 273.744 600.02 273.36 599.7 272.848C599.444 272.336 599.316 271.76 599.316 271.12V230.512C599.316 229.552 599.636 228.752 600.276 228.112C600.98 227.472 601.844 227.152 602.868 227.152C603.572 227.152 604.212 227.312 604.788 227.632C605.364 227.888 605.78 228.272 606.036 228.784C606.356 229.296 606.516 229.872 606.516 230.512V271.12C606.516 272.08 606.164 272.88 605.46 273.52C604.82 274.16 603.956 274.48 602.868 274.48ZM602.964 217.36C601.684 217.36 600.596 216.944 599.7 216.112C598.804 215.28 598.356 214.256 598.356 213.04C598.356 211.76 598.804 210.736 599.7 209.968C600.596 209.136 601.684 208.72 602.964 208.72C604.244 208.72 605.3 209.136 606.132 209.968C607.028 210.736 607.476 211.76 607.476 213.04C607.476 214.256 607.028 215.28 606.132 216.112C605.3 216.944 604.244 217.36 602.964 217.36ZM639.873 295.12C636.929 295.12 634.177 294.672 631.617 293.776C629.121 292.88 626.977 291.6 625.185 289.936C624.033 288.848 623.201 287.888 622.689 287.056C622.177 286.224 621.921 285.456 621.921 284.752C621.921 283.92 622.209 283.216 622.785 282.64C623.361 282.128 624.097 281.872 624.993 281.872C625.505 281.872 625.985 282 626.433 282.256C626.881 282.512 627.457 282.96 628.161 283.6C629.953 285.52 631.745 286.864 633.537 287.632C635.329 288.464 637.441 288.88 639.873 288.88C642.369 288.88 644.609 288.336 646.593 287.248C648.577 286.224 650.113 284.784 651.201 282.928C652.289 281.136 652.833 279.12 652.833 276.88V266.8H649.281L653.217 264.688C652.129 267.312 650.241 269.456 647.553 271.12C644.929 272.72 641.985 273.52 638.721 273.52C635.329 273.52 632.161 272.656 629.217 270.928C626.337 269.2 624.033 266.928 622.305 264.112C620.577 261.232 619.713 258.128 619.713 254.8V244.912C619.713 241.584 620.577 238.512 622.305 235.696C624.033 232.816 626.337 230.512 629.217 228.784C632.161 227.056 635.329 226.192 638.721 226.192C641.921 226.192 644.705 226.896 647.073 228.304C649.505 229.712 651.201 231.248 652.161 232.912H655.137L652.833 235.12V230.8C652.833 230.224 652.961 229.648 653.217 229.072C653.473 228.496 653.857 228.048 654.369 227.728C654.945 227.344 655.649 227.152 656.481 227.152C657.185 227.152 657.793 227.312 658.305 227.632C658.881 227.888 659.297 228.272 659.553 228.784C659.873 229.296 660.033 229.872 660.033 230.512V276.88C660.033 280.144 659.169 283.152 657.441 285.904C655.713 288.72 653.313 290.96 650.241 292.624C647.169 294.288 643.713 295.12 639.873 295.12ZM640.161 267.28C642.593 267.28 644.769 266.768 646.689 265.744C648.609 264.656 650.113 263.216 651.201 261.424C652.289 259.568 652.833 257.52 652.833 255.28V244.432C652.833 242.192 652.289 240.176 651.201 238.384C650.113 236.528 648.609 235.088 646.689 234.064C644.769 232.976 642.593 232.432 640.161 232.432C637.601 232.432 635.329 233.008 633.345 234.16C631.361 235.248 629.793 236.752 628.641 238.672C627.489 240.528 626.913 242.608 626.913 244.912V254.8C626.913 257.104 627.489 259.216 628.641 261.136C629.793 262.992 631.361 264.496 633.345 265.648C635.329 266.736 637.601 267.28 640.161 267.28ZM678.524 274.48C677.82 274.48 677.18 274.32 676.604 274C676.092 273.744 675.676 273.36 675.356 272.848C675.1 272.336 674.972 271.76 674.972 271.12V230.512C674.972 229.552 675.292 228.752 675.932 228.112C676.636 227.472 677.5 227.152 678.524 227.152C679.42 227.152 680.124 227.344 680.636 227.728C681.212 228.048 681.596 228.496 681.788 229.072C682.044 229.584 682.172 230.096 682.172 230.608V235.312L679.58 232.912H682.844C683.868 231.12 685.596 229.552 688.028 228.208C690.524 226.864 693.276 226.192 696.284 226.192C699.612 226.192 702.652 226.992 705.404 228.592C708.156 230.192 710.332 232.368 711.932 235.12C713.532 237.808 714.332 240.752 714.332 243.952V271.12C714.332 272.08 713.98 272.88 713.276 273.52C712.636 274.16 711.772 274.48 710.684 274.48C709.98 274.48 709.34 274.32 708.764 274C708.252 273.744 707.836 273.36 707.516 272.848C707.26 272.336 707.132 271.76 707.132 271.12V243.952C707.132 241.84 706.588 239.92 705.5 238.192C704.476 236.4 703.004 234.992 701.084 233.968C699.228 232.944 697.084 232.432 694.652 232.432C692.22 232.432 690.044 232.944 688.124 233.968C686.268 234.992 684.796 236.4 683.708 238.192C682.684 239.92 682.172 241.84 682.172 243.952V271.12C682.172 272.08 681.82 272.88 681.116 273.52C680.476 274.16 679.612 274.48 678.524 274.48ZM743.864 275.44C740.216 275.44 736.952 274.736 734.072 273.328C731.256 271.856 728.952 269.968 727.16 267.664C726.328 266.704 725.656 265.712 725.144 264.688C724.632 263.664 724.376 262.768 724.376 262C724.376 261.168 724.664 260.496 725.24 259.984C725.816 259.408 726.552 259.12 727.448 259.12C728.216 259.12 728.888 259.312 729.464 259.696C730.04 260.016 730.616 260.624 731.192 261.52C732.472 264.08 734.136 266 736.184 267.28C738.296 268.56 740.856 269.2 743.864 269.2C746.36 269.2 748.504 268.848 750.296 268.144C752.088 267.376 753.4 266.384 754.232 265.168C755.128 263.952 755.576 262.64 755.576 261.232C755.576 259.568 755 258.224 753.848 257.2C752.76 256.176 751.384 255.408 749.72 254.896C748.056 254.32 745.816 253.712 743 253.072C739.288 252.176 736.312 251.312 734.072 250.48C731.832 249.648 729.88 248.368 728.216 246.64C726.616 244.848 725.816 242.448 725.816 239.44C725.816 237.2 726.552 235.088 728.024 233.104C729.496 231.056 731.544 229.392 734.168 228.112C736.856 226.832 739.928 226.192 743.384 226.192C746.52 226.192 749.432 226.8 752.12 228.016C754.808 229.168 756.92 230.704 758.456 232.624C759.288 233.52 759.928 234.448 760.376 235.408C760.888 236.304 761.144 237.072 761.144 237.712C761.144 238.608 760.856 239.312 760.28 239.824C759.704 240.336 758.968 240.592 758.072 240.592C757.432 240.592 756.824 240.432 756.248 240.112C755.736 239.728 755.16 239.152 754.52 238.384C753.24 236.4 751.672 234.928 749.816 233.968C748.024 232.944 745.88 232.432 743.384 232.432C741.208 232.432 739.352 232.784 737.816 233.488C736.28 234.128 735.096 234.992 734.264 236.08C733.432 237.168 733.016 238.288 733.016 239.44C733.016 241.104 733.56 242.448 734.648 243.472C735.8 244.496 737.208 245.296 738.872 245.872C740.536 246.384 742.776 246.96 745.592 247.6C749.304 248.496 752.28 249.36 754.52 250.192C756.824 251.024 758.776 252.336 760.376 254.128C761.976 255.856 762.776 258.224 762.776 261.232C762.776 263.728 762.008 266.064 760.472 268.24C759 270.352 756.824 272.08 753.944 273.424C751.064 274.768 747.704 275.44 743.864 275.44Z" fill="white"/>
<path d="M137.716 370.25C125.35 370.25 114.033 368.5 103.766 365C93.4995 361.5 84.8662 356.95 77.8662 351.35C72.4995 347.15 68.4162 342.717 65.6162 338.05C62.8162 333.383 61.4162 329.067 61.4162 325.1C61.4162 319.267 63.3995 314.6 67.3662 311.1C71.5662 307.6 76.5829 305.85 82.4162 305.85C86.6162 305.85 90.4662 306.667 93.9662 308.3C97.4662 309.933 101.316 312.85 105.516 317.05C110.416 321.95 115.316 325.45 120.216 327.55C125.35 329.65 131.183 330.7 137.716 330.7C143.55 330.7 148.566 329.883 152.766 328.25C156.966 326.617 160 324.517 161.866 321.95C163.966 319.383 165.016 316.583 165.016 313.55C165.016 310.283 163.5 307.483 160.466 305.15C157.433 302.583 153.466 300.483 148.566 298.85C143.666 297.217 137.483 295.583 130.016 293.95C116.716 290.217 105.633 286.717 96.7662 283.45C88.1329 279.95 80.6662 274.583 74.3662 267.35C68.0662 260.117 64.9162 250.667 64.9162 239C64.9162 229.2 67.8329 220.1 73.6662 211.7C79.7329 203.067 88.3662 196.183 99.5662 191.05C110.766 185.917 123.833 183.35 138.766 183.35C150.433 183.35 160.933 184.867 170.266 187.9C179.833 190.933 187.883 195.017 194.416 200.15C199.55 204.35 203.516 208.667 206.316 213.1C209.35 217.533 210.866 221.617 210.866 225.35C210.866 230.95 208.883 235.5 204.916 239C200.95 242.5 196.05 244.25 190.216 244.25C186.016 244.25 182.166 243.55 178.666 242.15C175.4 240.517 171.666 237.95 167.466 234.45C162.566 230.25 157.9 227.333 153.466 225.7C149.266 223.833 144.366 222.9 138.766 222.9C134.1 222.9 130.016 223.6 126.516 225C123.25 226.167 120.683 227.917 118.816 230.25C116.95 232.583 116.016 235.033 116.016 237.6C116.016 241.1 117.533 244.133 120.566 246.7C123.6 249.033 127.566 251.017 132.466 252.65C137.6 254.05 143.783 255.683 151.016 257.55C164.316 261.05 175.283 264.55 183.916 268.05C192.783 271.55 200.366 276.917 206.666 284.15C212.966 291.15 216.116 300.483 216.116 312.15C216.116 322.417 212.966 331.983 206.666 340.85C200.6 349.717 191.616 356.833 179.716 362.2C167.816 367.567 153.816 370.25 137.716 370.25ZM328.89 370.25C313.257 370.25 299.14 366.983 286.54 360.45C273.94 353.683 264.023 344.7 256.79 333.5C249.557 322.067 245.94 309.35 245.94 295.35V139.95C245.94 133.417 248.39 127.817 253.29 123.15C258.19 118.483 264.373 116.15 271.84 116.15C276.507 116.15 280.823 117.317 284.79 119.65C288.757 121.75 291.79 124.667 293.89 128.4C296.223 131.9 297.39 135.75 297.39 139.95V201.55H310.69L296.34 209.25C298.207 204.35 301.357 199.917 305.79 195.95C310.457 191.75 315.94 188.6 322.24 186.5C328.54 184.4 335.307 183.35 342.54 183.35C354.907 183.35 366.34 186.733 376.84 193.5C387.34 200.033 395.74 209.133 402.04 220.8C408.34 232.233 411.49 244.717 411.49 258.25V295.35C411.49 309.35 407.873 322.067 400.64 333.5C393.407 344.7 383.49 353.683 370.89 360.45C358.29 366.983 344.29 370.25 328.89 370.25ZM328.89 327.9C334.723 327.9 339.973 326.5 344.64 323.7C349.54 320.9 353.39 317.05 356.19 312.15C358.99 307.017 360.39 301.417 360.39 295.35V258.25C360.39 251.95 358.99 246.35 356.19 241.45C353.39 236.55 349.54 232.7 344.64 229.9C339.973 226.867 334.723 225.35 328.89 225.35C322.823 225.35 317.34 226.867 312.44 229.9C307.773 232.7 304.04 236.55 301.24 241.45C298.673 246.35 297.39 251.95 297.39 258.25V295.35C297.39 301.417 298.673 307.017 301.24 312.15C304.04 317.05 307.773 320.9 312.44 323.7C317.34 326.5 322.823 327.9 328.89 327.9Z" fill="white"/>
<ellipse cx="402.324" cy="147" rx="24.2252" ry="25" fill="white"/>
</svg>
