<svg width="500" height="500" viewBox="0 0 500 500" fill="none" xmlns="http://www.w3.org/2000/svg">
<circle cx="417" cy="147" r="25" fill="white"/>
<path fill-rule="evenodd" clip-rule="evenodd" d="M113.266 365C123.533 368.5 134.85 370.25 147.216 370.25C163.316 370.25 177.316 367.567 189.216 362.2C201.116 356.833 210.1 349.717 216.166 340.85C222.466 331.983 225.616 322.417 225.616 312.15C225.616 300.483 222.466 291.15 216.166 284.15C209.866 276.917 202.283 271.55 193.416 268.05C184.783 264.55 173.816 261.05 160.516 257.55C153.283 255.683 147.1 254.05 141.966 252.65C137.066 251.017 133.1 249.033 130.066 246.7C127.033 244.133 125.516 241.1 125.516 237.6C125.516 235.033 126.45 232.583 128.316 230.25C130.183 227.917 132.75 226.167 136.016 225C139.516 223.6 143.6 222.9 148.266 222.9C153.866 222.9 158.766 223.833 162.966 225.7C167.4 227.333 172.066 230.25 176.966 234.45C181.166 237.95 184.9 240.517 188.166 242.15C191.666 243.55 195.516 244.25 199.716 244.25C205.55 244.25 210.45 242.5 214.416 239C218.383 235.5 220.366 230.95 220.366 225.35C220.366 221.617 218.85 217.533 215.816 213.1C213.016 208.667 209.05 204.35 203.916 200.15C197.383 195.017 189.333 190.933 179.766 187.9C170.433 184.867 159.933 183.35 148.266 183.35C133.333 183.35 120.266 185.917 109.066 191.05C97.8663 196.183 89.2329 203.067 83.1663 211.7C77.3329 220.1 74.4163 229.2 74.4163 239C74.4163 250.667 77.5663 260.117 83.8663 267.35C90.1663 274.583 97.6329 279.95 106.266 283.45C115.133 286.717 126.216 290.217 139.516 293.95C146.983 295.583 153.166 297.217 158.066 298.85C162.966 300.483 166.933 302.583 169.966 305.15C173 307.483 174.516 310.283 174.516 313.55C174.516 316.583 173.466 319.383 171.366 321.95C169.5 324.517 166.466 326.617 162.266 328.25C158.066 329.883 153.05 330.7 147.216 330.7C140.683 330.7 134.85 329.65 129.716 327.55C124.816 325.45 119.916 321.95 115.016 317.05C110.816 312.85 106.966 309.933 103.466 308.3C99.9663 306.667 96.1163 305.85 91.9163 305.85C86.0829 305.85 81.0663 307.6 76.8663 311.1C72.8996 314.6 70.9163 319.267 70.9163 325.1C70.9163 329.067 72.3163 333.383 75.1163 338.05C77.9163 342.717 81.9996 347.15 87.3663 351.35C94.3663 356.95 103 361.5 113.266 365ZM296.04 360.45C308.64 366.983 322.757 370.25 338.39 370.25C353.79 370.25 367.79 366.983 380.39 360.45C392.99 353.683 402.907 344.7 410.14 333.5C414.019 327.369 416.858 320.869 418.656 314H364.55C361.876 318.029 358.406 321.262 354.14 323.7C349.473 326.5 344.223 327.9 338.39 327.9C332.323 327.9 326.84 326.5 321.94 323.7C317.273 320.9 313.54 317.05 310.74 312.15C308.173 307.017 306.89 301.417 306.89 295.35V258.25C306.89 251.95 308.173 246.35 310.74 241.45C313.54 236.55 317.273 232.7 321.94 229.9C326.84 226.867 332.323 225.35 338.39 225.35C344.223 225.35 349.473 226.867 354.14 229.9C359.04 232.7 362.89 236.55 365.69 241.45C368.453 246.285 369.853 251.802 369.889 258H420.99C420.951 244.563 417.801 232.163 411.54 220.8C405.24 209.133 396.84 200.033 386.34 193.5C375.84 186.733 364.407 183.35 352.04 183.35C344.807 183.35 338.04 184.4 331.74 186.5C325.44 188.6 319.957 191.75 315.29 195.95C313.308 197.723 311.583 199.59 310.114 201.55H306.89V139.95C306.89 135.75 305.723 131.9 303.39 128.4C301.29 124.667 298.257 121.75 294.29 119.65C290.323 117.317 286.007 116.15 281.34 116.15C273.873 116.15 267.69 118.483 262.79 123.15C257.89 127.817 255.44 133.417 255.44 139.95V295.35C255.44 309.35 259.057 322.067 266.29 333.5C273.523 344.7 283.44 353.683 296.04 360.45Z" fill="white"/>
<path d="M336.468 294.656C334.922 294.656 333.478 294.263 332.137 293.475C330.824 292.687 329.774 291.652 328.987 290.369C328.199 289.056 327.806 287.642 327.806 286.125V280.744C327.806 279.227 328.199 277.827 328.987 276.544C329.774 275.231 330.824 274.181 332.137 273.394C333.478 272.606 334.922 272.212 336.468 272.212C338.014 272.212 339.385 272.606 340.581 273.394C341.806 274.152 342.637 275.115 343.074 276.281L341.281 275.275H342.899V265.212C342.899 264.775 343.045 264.41 343.337 264.119C343.658 263.827 344.066 263.681 344.562 263.681C344.883 263.681 345.16 263.754 345.393 263.9C345.656 264.017 345.845 264.192 345.962 264.425C346.108 264.658 346.181 264.921 346.181 265.212V292.687C346.181 293.125 346.035 293.49 345.743 293.781C345.451 294.073 345.058 294.219 344.562 294.219C344.212 294.219 343.906 294.146 343.643 294C343.41 293.825 343.22 293.606 343.074 293.344C342.928 293.081 342.856 292.79 342.856 292.469V289.887L343.993 291.594H342.593C342.097 292.41 341.295 293.125 340.187 293.737C339.078 294.35 337.839 294.656 336.468 294.656ZM337.124 291.812C338.233 291.812 339.224 291.579 340.099 291.113C340.974 290.617 341.66 289.96 342.156 289.144C342.651 288.298 342.899 287.365 342.899 286.344V280.525C342.899 279.504 342.651 278.585 342.156 277.769C341.66 276.923 340.974 276.267 340.099 275.8C339.224 275.304 338.233 275.056 337.124 275.056C335.958 275.056 334.922 275.319 334.018 275.844C333.114 276.34 332.399 277.025 331.874 277.9C331.349 278.746 331.087 279.694 331.087 280.744V286.125C331.087 287.175 331.349 288.137 331.874 289.012C332.399 289.858 333.114 290.544 334.018 291.069C334.922 291.565 335.958 291.812 337.124 291.812ZM361.608 294.656C359.828 294.656 358.224 294.277 356.795 293.519C355.366 292.731 354.243 291.681 353.426 290.369C352.61 289.056 352.201 287.642 352.201 286.125V280.744C352.201 279.227 352.61 277.812 353.426 276.5C354.243 275.187 355.366 274.152 356.795 273.394C358.224 272.606 359.828 272.212 361.608 272.212C363.387 272.212 364.991 272.606 366.42 273.394C367.878 274.152 369.001 275.187 369.789 276.5C370.605 277.812 371.014 279.227 371.014 280.744C371.014 281.152 371.014 281.575 371.014 282.012C371.014 282.45 371.014 282.873 371.014 283.281C371.014 283.719 370.868 284.083 370.576 284.375C370.285 284.667 369.891 284.812 369.395 284.812H354.214L355.483 283.806V286.125C355.483 287.175 355.745 288.137 356.27 289.012C356.795 289.858 357.524 290.544 358.458 291.069C359.391 291.565 360.441 291.812 361.608 291.812C362.891 291.812 363.985 291.579 364.889 291.113C365.822 290.646 366.653 290.004 367.383 289.187C367.733 288.837 368.024 288.604 368.258 288.487C368.52 288.371 368.812 288.312 369.133 288.312C369.483 288.312 369.774 288.444 370.008 288.706C370.241 288.94 370.358 289.231 370.358 289.581C370.358 289.902 370.241 290.267 370.008 290.675C369.803 291.054 369.468 291.448 369.001 291.856C368.155 292.731 367.12 293.417 365.895 293.912C364.67 294.408 363.241 294.656 361.608 294.656ZM355.483 282.887L354.258 282.056H368.826L367.733 283.019V280.744C367.733 279.694 367.47 278.746 366.945 277.9C366.42 277.025 365.691 276.34 364.758 275.844C363.853 275.319 362.803 275.056 361.608 275.056C360.441 275.056 359.391 275.319 358.458 275.844C357.553 276.34 356.824 277.025 356.27 277.9C355.745 278.746 355.483 279.694 355.483 280.744V282.887ZM383.829 294.656C382.167 294.656 380.679 294.335 379.367 293.694C378.083 293.023 377.033 292.162 376.217 291.113C375.837 290.675 375.531 290.223 375.298 289.756C375.065 289.29 374.948 288.881 374.948 288.531C374.948 288.152 375.079 287.846 375.342 287.612C375.604 287.35 375.94 287.219 376.348 287.219C376.698 287.219 377.004 287.306 377.267 287.481C377.529 287.627 377.792 287.904 378.054 288.312C378.637 289.479 379.396 290.354 380.329 290.937C381.292 291.521 382.458 291.812 383.829 291.812C384.967 291.812 385.944 291.652 386.76 291.331C387.577 290.981 388.175 290.529 388.554 289.975C388.962 289.421 389.167 288.823 389.167 288.181C389.167 287.423 388.904 286.81 388.379 286.344C387.883 285.877 387.256 285.527 386.498 285.294C385.74 285.031 384.719 284.754 383.435 284.462C381.744 284.054 380.387 283.66 379.367 283.281C378.346 282.902 377.456 282.319 376.698 281.531C375.969 280.715 375.604 279.621 375.604 278.25C375.604 277.229 375.94 276.267 376.61 275.362C377.281 274.429 378.215 273.671 379.41 273.087C380.635 272.504 382.035 272.212 383.61 272.212C385.04 272.212 386.367 272.49 387.592 273.044C388.817 273.569 389.779 274.269 390.479 275.144C390.858 275.552 391.15 275.975 391.354 276.412C391.587 276.821 391.704 277.171 391.704 277.462C391.704 277.871 391.573 278.192 391.31 278.425C391.048 278.658 390.712 278.775 390.304 278.775C390.012 278.775 389.735 278.702 389.473 278.556C389.24 278.381 388.977 278.119 388.685 277.769C388.102 276.865 387.387 276.194 386.542 275.756C385.725 275.29 384.748 275.056 383.61 275.056C382.619 275.056 381.773 275.217 381.073 275.537C380.373 275.829 379.833 276.223 379.454 276.719C379.075 277.215 378.885 277.725 378.885 278.25C378.885 279.008 379.133 279.621 379.629 280.087C380.154 280.554 380.796 280.919 381.554 281.181C382.312 281.415 383.333 281.677 384.617 281.969C386.308 282.377 387.665 282.771 388.685 283.15C389.735 283.529 390.625 284.127 391.354 284.944C392.083 285.731 392.448 286.81 392.448 288.181C392.448 289.319 392.098 290.383 391.398 291.375C390.727 292.337 389.735 293.125 388.423 293.737C387.11 294.35 385.579 294.656 383.829 294.656ZM399.212 294.219C398.891 294.219 398.6 294.146 398.337 294C398.104 293.883 397.914 293.708 397.768 293.475C397.652 293.242 397.593 292.979 397.593 292.687V274.181C397.593 273.744 397.739 273.379 398.031 273.087C398.352 272.796 398.745 272.65 399.212 272.65C399.533 272.65 399.825 272.723 400.087 272.869C400.35 272.985 400.539 273.16 400.656 273.394C400.802 273.627 400.875 273.89 400.875 274.181V292.687C400.875 293.125 400.714 293.49 400.393 293.781C400.102 294.073 399.708 294.219 399.212 294.219ZM399.256 268.187C398.672 268.187 398.177 267.998 397.768 267.619C397.36 267.24 397.156 266.773 397.156 266.219C397.156 265.635 397.36 265.169 397.768 264.819C398.177 264.44 398.672 264.25 399.256 264.25C399.839 264.25 400.32 264.44 400.7 264.819C401.108 265.169 401.312 265.635 401.312 266.219C401.312 266.773 401.108 267.24 400.7 267.619C400.32 267.998 399.839 268.187 399.256 268.187ZM416.076 303.625C414.735 303.625 413.48 303.421 412.314 303.013C411.176 302.604 410.199 302.021 409.383 301.263C408.858 300.767 408.478 300.329 408.245 299.95C408.012 299.571 407.895 299.221 407.895 298.9C407.895 298.521 408.026 298.2 408.289 297.938C408.551 297.704 408.887 297.588 409.295 297.588C409.528 297.588 409.747 297.646 409.951 297.763C410.155 297.879 410.418 298.083 410.739 298.375C411.555 299.25 412.372 299.863 413.189 300.213C414.005 300.592 414.968 300.781 416.076 300.781C417.214 300.781 418.235 300.533 419.139 300.038C420.043 299.571 420.743 298.915 421.239 298.069C421.735 297.252 421.983 296.333 421.983 295.313V290.719H420.364L422.158 289.756C421.662 290.952 420.801 291.929 419.576 292.687C418.38 293.417 417.039 293.781 415.551 293.781C414.005 293.781 412.562 293.387 411.22 292.6C409.908 291.812 408.858 290.777 408.07 289.494C407.283 288.181 406.889 286.767 406.889 285.25V280.744C406.889 279.227 407.283 277.827 408.07 276.544C408.858 275.231 409.908 274.181 411.22 273.394C412.562 272.606 414.005 272.212 415.551 272.212C417.01 272.212 418.278 272.533 419.358 273.175C420.466 273.817 421.239 274.517 421.676 275.275H423.033L421.983 276.281V274.312C421.983 274.05 422.041 273.787 422.158 273.525C422.274 273.262 422.449 273.058 422.683 272.912C422.945 272.737 423.266 272.65 423.645 272.65C423.966 272.65 424.243 272.723 424.476 272.869C424.739 272.985 424.928 273.16 425.045 273.394C425.191 273.627 425.264 273.89 425.264 274.181V295.313C425.264 296.8 424.87 298.171 424.083 299.425C423.295 300.708 422.201 301.729 420.801 302.488C419.401 303.246 417.826 303.625 416.076 303.625ZM416.208 290.937C417.316 290.937 418.308 290.704 419.183 290.237C420.058 289.742 420.743 289.085 421.239 288.269C421.735 287.423 421.983 286.49 421.983 285.469V280.525C421.983 279.504 421.735 278.585 421.239 277.769C420.743 276.923 420.058 276.267 419.183 275.8C418.308 275.304 417.316 275.056 416.208 275.056C415.041 275.056 414.005 275.319 413.101 275.844C412.197 276.34 411.483 277.025 410.958 277.9C410.433 278.746 410.17 279.694 410.17 280.744V285.25C410.17 286.3 410.433 287.262 410.958 288.137C411.483 288.983 412.197 289.669 413.101 290.194C414.005 290.69 415.041 290.937 416.208 290.937ZM433.691 294.219C433.37 294.219 433.078 294.146 432.816 294C432.582 293.883 432.393 293.708 432.247 293.475C432.13 293.242 432.072 292.979 432.072 292.687V274.181C432.072 273.744 432.218 273.379 432.51 273.087C432.83 272.796 433.224 272.65 433.691 272.65C434.099 272.65 434.42 272.737 434.653 272.912C434.916 273.058 435.091 273.262 435.178 273.525C435.295 273.758 435.353 273.992 435.353 274.225V276.369L434.172 275.275H435.66C436.126 274.458 436.914 273.744 438.022 273.131C439.16 272.519 440.414 272.212 441.785 272.212C443.301 272.212 444.687 272.577 445.941 273.306C447.195 274.035 448.187 275.027 448.916 276.281C449.645 277.506 450.01 278.848 450.01 280.306V292.687C450.01 293.125 449.849 293.49 449.528 293.781C449.237 294.073 448.843 294.219 448.347 294.219C448.026 294.219 447.735 294.146 447.472 294C447.239 293.883 447.049 293.708 446.903 293.475C446.787 293.242 446.728 292.979 446.728 292.687V280.306C446.728 279.344 446.48 278.469 445.985 277.681C445.518 276.865 444.847 276.223 443.972 275.756C443.126 275.29 442.149 275.056 441.041 275.056C439.932 275.056 438.941 275.29 438.066 275.756C437.22 276.223 436.549 276.865 436.053 277.681C435.587 278.469 435.353 279.344 435.353 280.306V292.687C435.353 293.125 435.193 293.49 434.872 293.781C434.58 294.073 434.187 294.219 433.691 294.219ZM463.468 294.656C461.805 294.656 460.318 294.335 459.005 293.694C457.722 293.023 456.672 292.162 455.855 291.113C455.476 290.675 455.17 290.223 454.937 289.756C454.703 289.29 454.587 288.881 454.587 288.531C454.587 288.152 454.718 287.846 454.98 287.612C455.243 287.35 455.578 287.219 455.987 287.219C456.337 287.219 456.643 287.306 456.905 287.481C457.168 287.627 457.43 287.904 457.693 288.312C458.276 289.479 459.034 290.354 459.968 290.937C460.93 291.521 462.097 291.812 463.468 291.812C464.605 291.812 465.582 291.652 466.399 291.331C467.216 290.981 467.814 290.529 468.193 289.975C468.601 289.421 468.805 288.823 468.805 288.181C468.805 287.423 468.543 286.81 468.018 286.344C467.522 285.877 466.895 285.527 466.137 285.294C465.378 285.031 464.357 284.754 463.074 284.462C461.382 284.054 460.026 283.66 459.005 283.281C457.984 282.902 457.095 282.319 456.337 281.531C455.607 280.715 455.243 279.621 455.243 278.25C455.243 277.229 455.578 276.267 456.249 275.362C456.92 274.429 457.853 273.671 459.049 273.087C460.274 272.504 461.674 272.212 463.249 272.212C464.678 272.212 466.005 272.49 467.23 273.044C468.455 273.569 469.418 274.269 470.118 275.144C470.497 275.552 470.789 275.975 470.993 276.412C471.226 276.821 471.343 277.171 471.343 277.462C471.343 277.871 471.212 278.192 470.949 278.425C470.687 278.658 470.351 278.775 469.943 278.775C469.651 278.775 469.374 278.702 469.112 278.556C468.878 278.381 468.616 278.119 468.324 277.769C467.741 276.865 467.026 276.194 466.18 275.756C465.364 275.29 464.387 275.056 463.249 275.056C462.257 275.056 461.412 275.217 460.712 275.537C460.012 275.829 459.472 276.223 459.093 276.719C458.714 277.215 458.524 277.725 458.524 278.25C458.524 279.008 458.772 279.621 459.268 280.087C459.793 280.554 460.434 280.919 461.193 281.181C461.951 281.415 462.972 281.677 464.255 281.969C465.947 282.377 467.303 282.771 468.324 283.15C469.374 283.529 470.264 284.127 470.993 284.944C471.722 285.731 472.087 286.81 472.087 288.181C472.087 289.319 471.737 290.383 471.037 291.375C470.366 292.337 469.374 293.125 468.062 293.737C466.749 294.35 465.218 294.656 463.468 294.656Z" fill="white"/>
</svg>
